<svg xmlns="http://www.w3.org/2000/svg" viewBox="0 0 289.36 421.39"><path d="M149.64,606.66s-.15,0-.23,0l.36-.29A1.05,1.05,0,0,1,149.64,606.66Z" transform="translate(-149.41 -185.31)" fill="#0b0806"/><path d="M149.8,606.37l0,0a.06.06,0,0,1,0,0h0Z" transform="translate(-149.41 -185.31)" fill="#0b0806"/><path d="M281.44,553.67a6.19,6.19,0,0,0-.19,12.37,6.19,6.19,0,1,0,.19-12.37Zm52.3,0a6.31,6.31,0,0,0-6.19,6,4.41,4.41,0,0,0,0,.73c0,.06,0,.12,0,.18a.76.76,0,0,0,0,.21,2,2,0,0,0,0,.24s0,0,0,0a3.83,3.83,0,0,0,.16.58,5.37,5.37,0,0,0,.21.56,4.11,4.11,0,0,0,.21.42,2,2,0,0,0,.14.25,5.91,5.91,0,0,0,.63.88l.05.06a3.34,3.34,0,0,0,.32.33,3,3,0,0,0,.37.34l.21.17a6.41,6.41,0,0,0,.86.57,4.49,4.49,0,0,0,.54.26,5.38,5.38,0,0,0,1,.33,1.1,1.1,0,0,0,.26.06h0l.43.07h.11a3.9,3.9,0,0,0,.59,0c.21,0,.43,0,.63,0l.15,0a5,5,0,0,0,1.05-.22l.14,0a2.86,2.86,0,0,0,.41-.15l.14-.06.31-.14.3-.16.07,0,.33-.21a4.83,4.83,0,0,0,.93-.76,4.27,4.27,0,0,0,.41-.44,2.48,2.48,0,0,0,.28-.36c.08-.11.16-.23.23-.35a.58.58,0,0,0,.11-.18,1.62,1.62,0,0,0,.1-.18h0l0,0a0,0,0,0,0,0,0,1.42,1.42,0,0,0,.12-.25,2.56,2.56,0,0,0,.11-.24v0a3.29,3.29,0,0,0,.16-.44.84.84,0,0,0,.05-.17c0-.13.08-.26.11-.4a.59.59,0,0,0,0-.14s0,0,0,0a2.82,2.82,0,0,0,.08-.55,5.25,5.25,0,0,0,0-.56A6.27,6.27,0,0,0,333.74,553.68Zm34.93,5.15c0-2,0-3.91,0-5.86,0-.3,0-.6,0-.9h0l0-.39a5.25,5.25,0,0,0-2.54-4.6,4.85,4.85,0,0,0-5.83.52c-.11.1-.22.21-.32.32a5.32,5.32,0,0,0-.56.74,5.88,5.88,0,0,0-.8,2.39,48.51,48.51,0,0,0-.27,5.26v1.36c0,1.31,0,2.62,0,3.93,0,.72,0,1.42,0,2.14h0c0,3.49-.1,7,.07,10.47a4.51,4.51,0,0,1-.07,1.27,11.17,11.17,0,0,0,1.84-.38,32.16,32.16,0,0,0,8.52-3.66C368.69,567.24,368.68,563,368.67,558.83ZM404.89,395.7c-1.56-.54-1.63-1.44-1.56-2.82.65-11.78-1.07-23.33-3.61-34.79-1-4.46-3-8.36-7.46-10.06-2.72-1-3.64-2.82-4.48-5.29-7.9-23.25-21.17-42.42-42.68-55.12-18.2-10.73-38.14-14-58.9-12.71-17.94,1.12-34.63,6.33-49.37,17-3.78,2.73-4.27,4.16-2.87,8.5l.33.57c2.14,3.43,4.67,4,8.6,1.59,5.09-3.13,10.08-6.42,15.65-8.68,19.73-8,40-8.92,60.44-3.75,14.14,3.58,26.64,10.35,36.4,21.54a3.17,3.17,0,0,0,.29.35,3.86,3.86,0,0,0,.49.5l0,0c.41.35.83.69,1.25,1l.4.37c.25.27.51.54.77.79A99.19,99.19,0,0,1,373.2,339c2.76,6.72,2.91,6.66-4.27,6.69-11.76.05-18.13,9.23-14.05,20.35,2.74,7.49,5.87,14.84,8.42,22.38,3,9,8.2,15.59,17.93,17.69a2.33,2.33,0,0,1,2.15,2.59c-.6,9.43-.11,18.89-1.33,28.33-3.41,26.22-19.7,44.52-37.52,61.95l-.61.61c.49-.05,1-.07,1.49-.12-5.6,5.9-12.16,10.58-19,14.87-2.85,1.78-6.24,1.61-9.39,2a188.89,188.89,0,0,1-52.77-1.15,9.59,9.59,0,0,1-3.62-1.78c-6.24-4.08-12.33-8.32-17.39-13.88l.05,0s0,0,0-.05q.66,0,1.32,0l-.32-.33-.42-.42a9.49,9.49,0,0,0-.9-.78,180.32,180.32,0,0,1-20.34-22.87,78.34,78.34,0,0,1-16.16-38.51c-1.12-8.56-.82-17.17-1.2-25.75-.14-3.09.5-4.41,3.56-5.23a21.22,21.22,0,0,0,14.92-13.52q2.76-7.15,5.45-14.34c1.62-4.32,3.47-8.56,4.91-12.94,2.73-8.33-1.37-16.34-9.51-18.68-2.93-.85-6-.43-8.94-.42-2.05,0-2.76-.52-1.91-2.61,1.79-4.38,3.61-8.74,5.8-13,2.35-4.52,6.07-8.27,7.48-13.3a.4.4,0,0,0,0-.11c0-.2,0-.4,0-.59a4.49,4.49,0,0,0-2.72-4.52l-.31-.13c-4.44-1.76-6.26-1.28-8.92,2.45a113.93,113.93,0,0,0-14.91,30.27c-.51,1.5-.93,2.64-2.63,3.22-4.77,1.63-7.48,5.24-8.58,10-2.63,11.43-4.47,23-3.76,34.75.13,2.3-.58,3.14-2.64,3.95A28.65,28.65,0,0,0,164,423.3a37.54,37.54,0,0,0,33.08,37.16c1.64.2,2.92.46,3.8,2.34,6.77,14.54,16.56,26.83,27.47,38.29l.87.9c1.44,1.51,2.91,3,4.39,4.49.73.74,1.91,1.17,2,2.48a22.24,22.24,0,0,0-18.35,10.87h0c.37-.24.74-.48,1.12-.71.6-.38,1.2-.74,1.81-1.07.4-.24.8-.46,1.21-.67l.35-.19,1.11-.56.08,0,.76-.37,0,0c.57-.27,1.15-.54,1.74-.79h0c.68-.3,1.38-.58,2.08-.86a3.64,3.64,0,0,1,3.78.32c.59.41,1.19.82,1.79,1.21l1,.64,1.79,1.13c.63.39,1.26.77,1.9,1.14l.82.48q2.18,1.26,4.38,2.38l1.48.74h0a1.43,1.43,0,0,0,.28.13l1.12.55.42.2c.65.31,1.31.61,2,.91h0c.84.37,1.68.74,2.53,1.09s1.72.7,2.58,1q2.59,1,5.27,1.9a129.57,129.57,0,0,0,13.78,3.78c-2.65,2.16-5.16,4.28-7.65,6.33q-1.86,1.53-3.72,3t-3.76,2.89c-.42.31-.82.64-1.19,1l-.53.5a10.7,10.7,0,0,0-1,1.14c-.14.17-.27.35-.4.54L254,548a2.53,2.53,0,0,0-.13.22,3.62,3.62,0,0,0-.24.43,6.45,6.45,0,0,0-.29.59c0,.09-.08.18-.11.27a3,3,0,0,0-.14.36,12.42,12.42,0,0,0-.66,5c.12,2.39.15,4.79.15,7.19,0,.44,0,.89,0,1.33,0,1.26,0,2.52,0,3.78,0,.6,0,1.2,0,1.81,0,1.39,0,2.79,0,4.18,0,.5,0,1,0,1.48a5.79,5.79,0,0,1,0,.75,2.79,2.79,0,0,1,0,.32.52.52,0,0,0,0,.11l0,.15a1.26,1.26,0,0,1-.25.49,1.54,1.54,0,0,1-.19.17,1,1,0,0,1-.24.15.62.62,0,0,1-.19.07,1.41,1.41,0,0,1-.22.06,4.09,4.09,0,0,1-1,.07q-2.06,0-4.11-.06-5.48-.06-10.93,0c5.9,1.53,11.88,2.58,17.86,3.72A216.5,216.5,0,0,0,277,583.86,217.2,217.2,0,0,0,305.23,585l2.16-.07,1.18-.05,1.18-.06,1.47-.08,2.21-.14,2.22-.17,2.39-.22c1-.09,1.91-.19,2.87-.3,1.17-.14,2.35-.29,3.52-.45.25,0,.5-.06.75-.11l1.89-.28c.74-.11,1.47-.23,2.21-.36,1.46-.24,2.94-.52,4.4-.81l2.21-.46,2.2-.5c.74-.17,1.47-.34,2.2-.53.92-.23,1.83-.47,2.74-.72s1.83-.51,2.74-.78l2.73-.84c.9-.29,1.81-.59,2.71-.9l.22-.07L352,577h0c-2.57,0-5.13,0-7.71,0H310.49c-14.89,0-29.79,0-44.68.05-.33,0-.63,0-.9,0l-.58-.08a1.78,1.78,0,0,1-1.56-1.79,6.69,6.69,0,0,1,0-1c0-1.11.06-2.22.08-3.33,0-.26,0-.52,0-.78v-.09c0-1.35,0-2.69,0-4v-.44c0-.45,0-.89,0-1.34q0-4-.08-8.06a4.52,4.52,0,0,1,1.15-3.43l.21-.21.22-.21.25-.21c6.84-5.44,13.59-11,20.36-16.55a5.09,5.09,0,0,1,3.67-1.32c20,1,38.77-2.73,56.13-11.45h0a114.72,114.72,0,0,0,12.44-7.27,5.06,5.06,0,0,1,5.31-.48,52.33,52.33,0,0,1,9,4.58c-3.75-6.14-9.75-9.87-18.81-10.67l-.6-.05c.18-.14.35-.28.52-.4a23.55,23.55,0,0,0,2.22-1.79l.22-.22c1.2-1.2,2.4-2.42,3.58-3.64,11.53-11.88,21.91-24.62,29-39.82.87-1.88,2.15-2.16,3.79-2.35a35.93,35.93,0,0,0,25.88-15.25C430.38,427.1,425.53,403,404.89,395.7ZM175.54,426.36a17.77,17.77,0,0,1,13-20.28c3.68-1,4-.77,4.05,3.06.28,13,.49,26.09,3.42,39.22C186.05,447.36,177.5,438,175.54,426.36Zm22.51-32.58c-1.65-.58-1.82-2-1.73-3.34.62-10,1-20.05,3.61-29.84.8-3.05,2.95-2.88,5.27-2.64,4.72,0,9.45,0,14.18-.11,2.43,0,3.72,1,2.77,3.42-3.66,9.34-6.74,18.91-11,28C208.18,393.37,202.44,395.33,198.05,393.78Zm189.9.1c-7.69.08-9.71-1.27-12.51-8.52Q371.15,374.22,367,363c-1.69-4.49-1.14-5.21,3.66-5.08,4.72,0,9.44,0,14.16-.12,2.25,0,3.32.9,3.85,3.1a133.46,133.46,0,0,1,3.35,28.3C392.24,393.56,392,393.84,388,393.88Zm4.53,54.66c3-13.41,3.27-26.68,3.38-40,0-3,1.31-3.2,3.58-2.7A17.39,17.39,0,0,1,413,421C414.51,434.16,404.47,446.6,392.48,448.54ZM333.74,553.68a6.31,6.31,0,0,0-6.19,6,4.41,4.41,0,0,0,0,.73c0,.06,0,.12,0,.18a.76.76,0,0,0,0,.21,2,2,0,0,0,0,.24s0,0,0,0a3.83,3.83,0,0,0,.16.58,5.37,5.37,0,0,0,.21.56,4.11,4.11,0,0,0,.21.42,2,2,0,0,0,.14.25,5.91,5.91,0,0,0,.63.88l.05.06a3.34,3.34,0,0,0,.32.33,3,3,0,0,0,.37.34l.21.17a6.41,6.41,0,0,0,.86.57,4.49,4.49,0,0,0,.54.26,5.38,5.38,0,0,0,1,.33,1.1,1.1,0,0,0,.26.06h0l.43.07h.11a3.9,3.9,0,0,0,.59,0c.21,0,.43,0,.63,0l.15,0a5,5,0,0,0,1.05-.22l.14,0a2.86,2.86,0,0,0,.41-.15l.14-.06.31-.14.3-.16.07,0,.33-.21a4.83,4.83,0,0,0,.93-.76,4.27,4.27,0,0,0,.41-.44,2.48,2.48,0,0,0,.28-.36c.08-.11.16-.23.23-.35a.58.58,0,0,0,.11-.18,1.62,1.62,0,0,0,.1-.18h0l0,0a0,0,0,0,0,0,0,1.42,1.42,0,0,0,.12-.25,2.56,2.56,0,0,0,.11-.24v0a3.29,3.29,0,0,0,.16-.44.84.84,0,0,0,.05-.17c0-.13.08-.26.11-.4a.59.59,0,0,0,0-.14s0,0,0,0a2.82,2.82,0,0,0,.08-.55,5.25,5.25,0,0,0,0-.56A6.27,6.27,0,0,0,333.74,553.68Zm-52.3,0a6.19,6.19,0,0,0-.19,12.37,6.19,6.19,0,1,0,.19-12.37Zm0,0a6.19,6.19,0,0,0-.19,12.37,6.19,6.19,0,1,0,.19-12.37Zm52.3,0a6.31,6.31,0,0,0-6.19,6,4.41,4.41,0,0,0,0,.73c0,.06,0,.12,0,.18a.76.76,0,0,0,0,.21,2,2,0,0,0,0,.24s0,0,0,0a3.83,3.83,0,0,0,.16.58,5.37,5.37,0,0,0,.21.56,4.11,4.11,0,0,0,.21.42,2,2,0,0,0,.14.25,5.91,5.91,0,0,0,.63.88l.05.06a3.34,3.34,0,0,0,.32.33,3,3,0,0,0,.37.34l.21.17a6.41,6.41,0,0,0,.86.57,4.49,4.49,0,0,0,.54.26,5.38,5.38,0,0,0,1,.33,1.1,1.1,0,0,0,.26.06h0l.43.07h.11a3.9,3.9,0,0,0,.59,0c.21,0,.43,0,.63,0l.15,0a5,5,0,0,0,1.05-.22l.14,0a2.86,2.86,0,0,0,.41-.15l.14-.06.31-.14.3-.16.07,0,.33-.21a4.83,4.83,0,0,0,.93-.76,4.27,4.27,0,0,0,.41-.44,2.48,2.48,0,0,0,.28-.36c.08-.11.16-.23.23-.35a.58.58,0,0,0,.11-.18,1.62,1.62,0,0,0,.1-.18l0,0a0,0,0,0,0,0,0,1.42,1.42,0,0,0,.12-.25,2.56,2.56,0,0,0,.11-.24v0a3.29,3.29,0,0,0,.16-.44.84.84,0,0,0,.05-.17c0-.13.08-.26.11-.4a.59.59,0,0,0,0-.14s0,0,0,0a2.82,2.82,0,0,0,.08-.55,5.25,5.25,0,0,0,0-.56A6.27,6.27,0,0,0,333.74,553.68Zm-52.3,0a6.19,6.19,0,0,0-.19,12.37,6.19,6.19,0,1,0,.19-12.37ZM231,575.55l0-.29a5.92,5.92,0,0,1,0-.61c.05-3.66.05-7.32.05-11q0-4.39,0-8.79c0-.91.05-1.82,0-2.72-.28-3.55-2.52-6-5.38-5.85s-4.88,2.28-4.94,5.84c0,.24,0,.48,0,.72h0q0,2.46-.06,4.92c0,1.56,0,3.12,0,4.68,0,2.07,0,4.15,0,6.22,0,0,0,0,0,.07h0s0,0,0,0c0,.94,0,1.87,0,2.81h0c0,.27,0,.53,0,.79.52.21,1.06.42,1.63.63l.75.25c1.39.47,2.91.91,4.57,1.3h0c1.14.41,2.29.79,3.44,1.14A1.18,1.18,0,0,1,231,575.55Z" transform="translate(-149.41 -185.31)" fill="#fff"/><path d="M438.77,606.44l-.07-.05s0,0,0,0h0Z" transform="translate(-149.41 -185.31)" fill="#0b0806"/><path d="M438.73,606.35l0,0s0,0,0,0Z" transform="translate(-149.41 -185.31)" fill="#9a6b53"/><path d="M243.25,499.44s0,0,0,.05l-.05,0h0Z" transform="translate(-149.41 -185.31)" fill="#f1bb88"/><path d="M149.78,606.36h0v0Z" transform="translate(-149.41 -185.31)" fill="#855b47"/><path d="M149.41,606.69l.36-.29a1.05,1.05,0,0,1-.13.26S149.49,606.68,149.41,606.69Z" transform="translate(-149.41 -185.31)" fill="#855b47"/><path d="M149.8,606.37l0,0a.06.06,0,0,1,0,0Z" transform="translate(-149.41 -185.31)" fill="#855b47"/><path d="M438.73,606.35l0,.09-.07-.05Z" transform="translate(-149.41 -185.31)" fill="#9a6b53"/><path d="M258.22,368.57c6.19.26,12.41,1.21,18.18,4.13,3.51,1.78,4.89,4.87,3.53,7.87s-4.68,4-8.27,2.42a32.37,32.37,0,0,0-27.38.12c-3.38,1.52-6.48.46-7.91-2.47-1.51-3.11-.3-6.05,3.32-7.88C245.45,369.83,251.66,368.82,258.22,368.57Z" transform="translate(-149.41 -185.31)" fill="#fff"/><path d="M330.8,368.57c6.37.27,12.59,1.25,18.35,4.2,3.47,1.77,4.78,4.94,3.31,7.93-1.38,2.8-4.64,3.85-8,2.37a32.58,32.58,0,0,0-27.73.09c-3.33,1.5-6.5.32-7.84-2.65s-.17-6,3.19-7.67C318,369.85,324.29,368.77,330.8,368.57Z" transform="translate(-149.41 -185.31)" fill="#fff"/><path d="M294.78,449.73a33.61,33.61,0,0,1-13.13-3c-3.39-1.61-4.68-4.58-3.37-7.58s4.27-4.29,7.73-2.81a21,21,0,0,0,17.31,0c3.39-1.44,6.46-.18,7.74,2.85s0,5.8-3.14,7.41A32.18,32.18,0,0,1,294.78,449.73Z" transform="translate(-149.41 -185.31)" fill="#fff"/><path d="M263.51,405.45c0,2.24.09,4.49,0,6.73-.18,3.59-2.7,6.09-5.86,6s-5.31-2.38-5.38-5.95c-.09-4.61-.1-9.23,0-13.84.08-3.49,2.4-5.81,5.52-5.82s5.42,2.41,5.72,5.78a6.26,6.26,0,0,1,0,.75Q263.52,402.27,263.51,405.45Z" transform="translate(-149.41 -185.31)" fill="#fff"/><path d="M336.26,405.59c0,2.37.1,4.75,0,7.11a5.47,5.47,0,0,1-5.47,5.48,5.58,5.58,0,0,1-5.64-5c-.25-5.22-.25-10.48,0-15.7.15-2.89,3-5,5.69-4.92a5.47,5.47,0,0,1,5.41,5.54C336.36,400.6,336.26,403.1,336.26,405.59Z" transform="translate(-149.41 -185.31)" fill="#fff"/><path d="M355.58,279.92h-1.09a15.27,15.27,0,0,1-7.35-1.84c-1.32-.72-2.67-1.42-4-2.07a97.3,97.3,0,0,0-18.31-6.64l-.21-.06c-1.87-.48-3.81-.91-5.76-1.28l-.13,0a127.61,127.61,0,0,0-24.86-2.18c-2.25,0-4.31.06-6.32.16h-.12l-.63,0-.38,0a4.53,4.53,0,0,1-.41-9h.33l.83,0c2.12-.1,4.3-.16,6.65-.16a134.08,134.08,0,0,1,26.52,2.32l.12,0c2.23.43,4.45.93,6.6,1.47l.23.06a107.75,107.75,0,0,1,19.79,7.21c1.49.72,3,1.49,4.43,2.29a5.78,5.78,0,0,0,1.2.48q0-6,0-12,0-9.33,0-18.66a12.43,12.43,0,0,1,2.51-7.78c4.26-5.6,5.76-12,4.6-19.45s-7-16.57-17.08-18.21c-7-1.14-15.33,3.72-19,11.07-.13.27-.26.56-.39.85-.83,1.89-2.75,6.32-8,6.14-4.79-.15-6.55-4.07-7.39-6-.14-.31-.28-.63-.43-.92-4-7.5-9.53-11.16-16.81-11.19h-.1c-7.32,0-12.85,3.66-16.89,11.2-.16.3-.3.62-.44.93-.84,1.82-2.77,6.09-7.87,6-4.78-.11-6.56-4-7.41-5.9-.15-.32-.29-.64-.45-.93-4.24-7.79-9.91-11.37-17.78-11.22a3.78,3.78,0,0,1-.82-.06l-.3.08c-.27.06-.54.13-.82.18-7.69,1.5-12.74,6.19-15.45,14.35a24,24,0,0,0,3.41,22.76,13.88,13.88,0,0,1,2.76,8.56c0,5.67,0,11.34,0,17q0,6.68,0,13.34h5.14a4.16,4.16,0,0,1,.86.07,6,6,0,0,0,2.56-.69,99.59,99.59,0,0,1,17.42-7.54,4.53,4.53,0,0,1,2.8,8.62A89.63,89.63,0,0,0,241.39,278a15.26,15.26,0,0,1-7.33,1.83,5.54,5.54,0,0,1-.89-.08h-2c-1.8,0-3.5,0-5.16.11a6.07,6.07,0,0,1-4.78-1.53,6.79,6.79,0,0,1-1.87-5.22c0-5.24,0-10.49,0-15.74,0-5.68,0-11.36,0-17a4.81,4.81,0,0,0-1-3.22,33,33,0,0,1-4.66-30.92C217.47,195,225.18,188,236,185.86l.41-.1a9,9,0,0,1,3.61-.28h.1c11,0,19.53,5.36,25.29,15.93,0,.08.08.16.13.24l.11-.22c5.61-10.45,14.2-16,24.86-16h.14c10.61,0,19.17,5.57,24.76,16a2.12,2.12,0,0,1,.11.21l0-.07c5.4-10.89,17.67-17.76,28.55-16,14.52,2.37,22.91,15,24.57,25.77,1.53,9.9-.59,18.75-6.32,26.29a3.37,3.37,0,0,0-.68,2.28q0,9.35,0,18.7,0,7.31,0,14.61C361.75,279.44,357,279.92,355.58,279.92Zm-120.69-9h0Z" transform="translate(-149.41 -185.31)" fill="#fff"/><path d="M334.83,491.4a36.54,36.54,0,0,0-5.95-12,8,8,0,0,0,1.18-4.65,8.37,8.37,0,0,0-3.54-6.19,50.18,50.18,0,0,0-12.34-6.39,7.72,7.72,0,0,0-.81-2,8.85,8.85,0,0,0-5.77-4.07,58.23,58.23,0,0,0-22-.16,8.84,8.84,0,0,0-5.83,4,7.82,7.82,0,0,0-.84,1.95,50.19,50.19,0,0,0-12.43,6.26,8.36,8.36,0,0,0-3.63,6.15A7.87,7.87,0,0,0,264,479a36.71,36.71,0,0,0-6.13,11.9,8.34,8.34,0,0,0,.34,5.81,8.07,8.07,0,0,0,1.1,1.85l0,0a9.05,9.05,0,0,0,2.33,2.1h0a10,10,0,0,0,11.36-.45.75.75,0,0,0,.14-.12A28.84,28.84,0,0,1,281,495.8l2.35,2.26a43.48,43.48,0,0,1,7.31-2.77l11.42.07a43,43,0,0,1,7.26,2.87l2.39-2.24a28.53,28.53,0,0,1,7.2,4.07c.22.16.44.33.65.51a9.92,9.92,0,0,0,11.16.69l.19-.1a9.3,9.3,0,0,0,2.14-1.78,8.73,8.73,0,0,0,1.71-2.92h0A8.36,8.36,0,0,0,334.83,491.4Zm-7.13,5.1h0a3.88,3.88,0,0,1-4.48-.25s-4.74-3.21-7.12-4.38l8.78-8.22a31.09,31.09,0,0,1,4.29,9.17,3.15,3.15,0,0,1-1.42,3.65S327.72,496.5,327.7,496.5Zm-58.28-.59h0a3.9,3.9,0,0,1-4.49.19,3.16,3.16,0,0,1-1.42-3.7,31,31,0,0,1,4.42-9.11l8.68,8.33C274.2,492.76,269.42,495.91,269.42,495.91Zm.11-19a2.62,2.62,0,0,1-.82-2.13,3,3,0,0,1,1.26-2.13,44.41,44.41,0,0,1,9.43-5l8.76,22.45a31.81,31.81,0,0,0-3.61,1.2ZM284.59,465a2.77,2.77,0,0,1,1.9-3.52,1.77,1.77,0,0,1,.31-.08,51.42,51.42,0,0,1,19.51.13,2.84,2.84,0,0,1,1.94,1.36,2.53,2.53,0,0,1,.26,2.16l-10,24.72-4.23,0Zm29,2.91A43.39,43.39,0,0,1,323,473a2.88,2.88,0,0,1,1.23,2.13,2.69,2.69,0,0,1-.86,2.15L308.14,491.5a35.94,35.94,0,0,0-3.58-1.23Z" transform="translate(-149.41 -185.31)" fill="#fff"/><line x1="104.45" y1="46.14" x2="104.45" y2="62.57" fill="#fff"/><path d="M253.86,251.78a3.91,3.91,0,0,1-3.9-3.9V231.44a3.9,3.9,0,0,1,7.8,0v16.44A3.91,3.91,0,0,1,253.86,251.78Z" transform="translate(-149.41 -185.31)" fill="#fff"/><line x1="141.1" y1="40.55" x2="141.1" y2="56.98" fill="#fff"/><path d="M290.51,246.19a3.9,3.9,0,0,1-3.9-3.9V225.85a3.9,3.9,0,0,1,7.79,0v16.44A3.9,3.9,0,0,1,290.51,246.19Z" transform="translate(-149.41 -185.31)" fill="#fff"/><line x1="182.27" y1="45.02" x2="182.27" y2="61.45" fill="#fff"/><path d="M331.67,250.66a3.9,3.9,0,0,1-3.89-3.9V230.33a3.9,3.9,0,1,1,7.79,0v16.43A3.9,3.9,0,0,1,331.67,250.66Z" transform="translate(-149.41 -185.31)" fill="#fff"/></svg>